<svg width="210" height="68" viewBox="0 0 210 68" fill="none" xmlns="http://www.w3.org/2000/svg">
<path d="M4.3823 26.8633C7.27224 22.9761 16.3714 15.6072 29.6486 17.2297C42.9258 18.8522 46.7405 27.7084 46.9882 31.9336C47.1533 36.1589 45.6506 45.3699 38.3184 48.4121C30.9862 51.4543 27.9972 47.8206 27.4192 45.6234C27.1715 44.9474 28.0137 43.3418 33.3642 42.3277C34.8199 42.0518 35.7951 41.8698 36.4188 41.756C37.4484 40.9238 39.6382 38.4167 40.7955 34.4688C42.2817 29.3985 33.3642 31.4266 33.3642 31.1731C33.3642 30.9196 31.3826 30.9195 29.6486 26.8633C28.2614 23.6183 24.777 23.8211 23.2082 24.3282C21.8871 25.1732 19.5421 27.4718 20.7311 29.9055C21.9201 32.3392 22.8779 33.9617 23.2082 34.4688C23.8687 35.9053 24.7935 39.1841 23.2082 40.8066C21.6228 42.4291 18.4191 41.8207 17.0154 41.3137C16.1072 40.7221 14.1916 39.0827 13.7952 37.2574C13.3989 35.4321 13.9604 33.2857 14.2907 32.4406C14.4558 31.9336 14.5384 30.8181 13.5475 30.4125C12.5567 30.0069 11.4833 32.9477 11.0704 34.4688C10.7402 35.0603 9.98052 36.9532 9.58419 39.7926C9.18785 42.6319 9.91446 45.8769 10.3273 47.1445C10.4925 48.0741 11.3677 50.8458 13.5475 54.4964C15.7274 58.1471 17.098 59.5667 17.5109 59.8203C17.676 60.2428 17.9072 61.2399 17.5109 61.8484C17.1145 62.4568 13.8778 61.0878 12.309 60.3273C9.91446 58.4682 4.77864 54.0401 3.39147 51.2008C2.0043 48.3614 1.32723 44.1023 1.16209 42.3277C0.91438 40.7221 0.765755 36.5983 2.15292 32.9477C3.88688 28.3844 1.65752 34.4687 4.3823 26.8633Z" fill="#F6B8A9"/>
<path d="M26.1807 31.9336C25.1898 31.9336 25.1072 30.9196 25.1898 30.4125C25.1898 30.2435 25.388 29.9055 26.1807 29.9055C26.9733 29.9055 27.1715 30.4125 27.1715 30.666C27.2541 31.0886 27.1715 31.9336 26.1807 31.9336Z" fill="#F6B8A9"/>
<path d="M4.3823 26.8633C7.27224 22.9761 16.3714 15.6072 29.6486 17.2297C42.9258 18.8522 46.7405 27.7084 46.9882 31.9336C47.1533 36.1589 45.6506 45.3699 38.3184 48.4121C30.9862 51.4543 27.9972 47.8206 27.4192 45.6234C27.1715 44.9474 28.0137 43.3418 33.3642 42.3277C34.8199 42.0518 35.7951 41.8698 36.4188 41.756C37.4484 40.9238 39.6382 38.4167 40.7955 34.4688C42.2817 29.3985 33.3642 31.4266 33.3642 31.1731C33.3642 30.9196 31.3826 30.9195 29.6486 26.8633C28.2614 23.6183 24.777 23.8211 23.2082 24.3282C21.8871 25.1732 19.5421 27.4718 20.7311 29.9055C21.9201 32.3392 22.8779 33.9617 23.2082 34.4688C23.8687 35.9053 24.7935 39.1841 23.2082 40.8066C21.6228 42.4291 18.4191 41.8207 17.0154 41.3137C16.1072 40.7221 14.1916 39.0827 13.7952 37.2574C13.3989 35.4321 13.9604 33.2857 14.2907 32.4406C14.4558 31.9336 14.5384 30.8181 13.5475 30.4125C12.5567 30.0069 11.4833 32.9477 11.0704 34.4688C10.7402 35.0603 9.98052 36.9532 9.58419 39.7926C9.18785 42.6319 9.91446 45.8769 10.3273 47.1445C10.4925 48.0741 11.3677 50.8458 13.5475 54.4964C15.7274 58.1471 17.098 59.5667 17.5109 59.8203C17.676 60.2428 17.9072 61.2399 17.5109 61.8484C17.1145 62.4568 13.8778 61.0878 12.309 60.3273C9.91446 58.4682 4.77864 54.0401 3.39147 51.2008C2.0043 48.3614 1.32723 44.1023 1.16209 42.3277C0.91438 40.7221 0.765755 36.5983 2.15292 32.9477C3.88688 28.3844 1.65752 34.4687 4.3823 26.8633Z" stroke="#F6B8A9"/>
<path d="M26.1807 31.9336C25.1898 31.9336 25.1072 30.9196 25.1898 30.4125C25.1898 30.2435 25.388 29.9055 26.1807 29.9055C26.9733 29.9055 27.1715 30.4125 27.1715 30.666C27.2541 31.0886 27.1715 31.9336 26.1807 31.9336Z" stroke="#F6B8A9"/>
<path d="M52.4203 41.728C52.4203 39.2267 52.7563 37.024 53.4283 35.12C54.1376 33.216 55.0896 31.6293 56.2843 30.36C57.5163 29.0533 58.9536 28.0827 60.5963 27.448C62.239 26.776 64.0123 26.44 65.9163 26.44C67.5963 26.44 69.015 26.6453 70.1723 27.056C71.367 27.4667 72.3376 28.0267 73.0843 28.736C73.831 29.4453 74.3723 30.2853 74.7083 31.256C75.0816 32.2267 75.2683 33.272 75.2683 34.392C75.2683 35.736 74.895 37.024 74.1483 38.256C73.4016 39.4507 72.319 40.5147 70.9003 41.448C69.519 42.344 67.839 43.072 65.8603 43.632C63.8816 44.1547 61.6603 44.4347 59.1963 44.472C59.3083 45.3307 59.4763 46.152 59.7003 46.936C59.9616 47.6827 60.3163 48.3547 60.7643 48.952C61.2496 49.512 61.8656 49.96 62.6123 50.296C63.359 50.632 64.2923 50.8 65.4123 50.8C66.2336 50.8 67.111 50.7067 68.0443 50.52C68.9776 50.3333 69.8363 50.1093 70.6203 49.848C71.5536 49.5493 72.4683 49.2133 73.3643 48.84L75.0443 52.816C74.0736 53.3013 73.0283 53.7307 71.9083 54.104C70.9376 54.44 69.8176 54.7387 68.5483 55C67.279 55.2613 65.935 55.392 64.5163 55.392C62.351 55.392 60.503 55.0747 58.9723 54.44C57.4416 53.768 56.191 52.8347 55.2203 51.64C54.2496 50.4453 53.5403 49.008 53.0923 47.328C52.6443 45.648 52.4203 43.7813 52.4203 41.728ZM65.4123 30.808C64.1803 30.808 63.1536 31.1067 62.3323 31.704C61.5483 32.264 60.9136 33.0107 60.4283 33.944C59.943 34.84 59.5883 35.8667 59.3643 37.024C59.1776 38.144 59.0656 39.2827 59.0283 40.44C60.8203 40.3653 62.3323 40.1413 63.5643 39.768C64.8336 39.3573 65.8603 38.872 66.6443 38.312C67.4283 37.7147 67.9883 37.08 68.3243 36.408C68.6976 35.736 68.8843 35.064 68.8843 34.392C68.8843 33.3093 68.567 32.4507 67.9323 31.816C67.2976 31.144 66.4576 30.808 65.4123 30.808ZM75.8222 27.112H80.8622L81.9822 20.56L87.2462 19.384V27.112H94.1342L93.3502 31.648H87.2462V48.224C87.2462 49.1947 87.5075 49.8293 88.0302 50.128C88.5529 50.3893 89.1315 50.52 89.7662 50.52C90.2889 50.52 90.8115 50.4827 91.3342 50.408C91.8569 50.3333 92.3235 50.24 92.7342 50.128C93.2195 50.016 93.6862 49.8853 94.1342 49.736L95.1982 53.936L94.6942 54.104C94.3582 54.2533 93.8542 54.4213 93.1822 54.608C92.5475 54.7573 91.7822 54.888 90.8862 55C90.0275 55.1493 89.0755 55.224 88.0302 55.224C86.9849 55.224 86.0142 55.112 85.1182 54.888C84.2595 54.664 83.5129 54.3093 82.8782 53.824C82.2435 53.3013 81.7395 52.648 81.3662 51.864C81.0302 51.08 80.8622 50.1093 80.8622 48.952V31.648H75.8222V27.112ZM119.708 41.504C119.708 43.744 119.839 45.6293 120.1 47.16C120.399 48.6533 120.716 49.8667 121.052 50.8C121.463 51.92 121.911 52.7973 122.396 53.432L117.412 55.448C116.927 54.9627 116.479 54.384 116.068 53.712C115.732 53.1147 115.415 52.4053 115.116 51.584C114.818 50.7253 114.631 49.7173 114.556 48.56C113.922 50.8 112.895 52.4987 111.476 53.656C110.095 54.776 108.21 55.336 105.82 55.336C104.066 55.336 102.535 55.0187 101.228 54.384C99.9589 53.712 98.8949 52.7787 98.0363 51.584C97.1776 50.352 96.5429 48.8773 96.1323 47.16C95.7216 45.4427 95.5163 43.5387 95.5163 41.448C95.5163 39.32 95.8336 37.36 96.4683 35.568C97.1403 33.7387 98.0549 32.1707 99.2123 30.864C100.407 29.5573 101.826 28.5307 103.468 27.784C105.111 27.0373 106.922 26.664 108.9 26.664C110.02 26.664 111.178 26.7573 112.372 26.944C113.604 27.0933 114.743 27.2613 115.788 27.448C116.834 27.6347 117.711 27.8213 118.42 28.008C119.167 28.1573 119.596 28.2507 119.708 28.288V41.504ZM106.884 50.856C107.818 50.856 108.676 50.5387 109.46 49.904C110.244 49.2693 110.916 48.448 111.476 47.44C112.074 46.3947 112.522 45.2187 112.82 43.912C113.156 42.568 113.324 41.2053 113.324 39.824V31.76C112.951 31.648 112.391 31.5173 111.644 31.368C110.898 31.2187 110.226 31.144 109.628 31.144C108.21 31.144 107.034 31.3867 106.1 31.872C105.204 32.3573 104.476 33.0293 103.916 33.888C103.356 34.7467 102.964 35.7733 102.74 36.968C102.516 38.1627 102.404 39.4693 102.404 40.888C102.404 42.1947 102.442 43.4453 102.516 44.64C102.591 45.8347 102.778 46.8987 103.076 47.832C103.412 48.7653 103.879 49.512 104.476 50.072C105.074 50.5947 105.876 50.856 106.884 50.856ZM156.982 55V36.744C156.982 35.176 156.739 33.944 156.254 33.048C155.769 32.1147 154.929 31.648 153.734 31.648C153.025 31.648 152.297 31.8533 151.55 32.264C150.841 32.6373 150.187 33.1973 149.59 33.944C148.993 34.6907 148.507 35.5867 148.134 36.632C147.761 37.6773 147.574 38.8347 147.574 40.104V55H141.246V36.744C141.246 35.176 141.003 33.944 140.518 33.048C140.033 32.1147 139.193 31.648 137.998 31.648C137.251 31.648 136.505 31.872 135.758 32.32C135.049 32.7307 134.395 33.3467 133.798 34.168C133.238 34.9893 132.771 35.9973 132.398 37.192C132.062 38.3493 131.894 39.656 131.894 41.112V55H125.51V40.888C125.51 38.648 125.361 36.7813 125.062 35.288C124.763 33.7573 124.446 32.5253 124.11 31.592C123.699 30.5093 123.251 29.632 122.766 28.96L127.806 26.944C128.179 27.3547 128.553 27.8587 128.926 28.456C129.225 28.9787 129.523 29.632 129.822 30.416C130.121 31.1627 130.363 32.0213 130.55 32.992C131.483 30.752 132.79 29.1467 134.47 28.176C136.187 27.168 137.998 26.664 139.902 26.664C141.806 26.664 143.281 27.1493 144.326 28.12C145.409 29.0907 146.211 30.3413 146.734 31.872C147.742 30.0053 149.03 28.68 150.598 27.896C152.203 27.0747 153.883 26.664 155.638 26.664C157.094 26.664 158.307 26.9067 159.278 27.392C160.286 27.84 161.07 28.4933 161.63 29.352C162.227 30.1733 162.657 31.1813 162.918 32.376C163.179 33.5333 163.31 34.84 163.31 36.296V55H156.982ZM175.047 55.224C173.069 55.224 171.557 54.6453 170.511 53.488C169.466 52.2933 168.943 50.7627 168.943 48.896V27.112H175.327V48.336C175.327 49.1947 175.458 49.7733 175.719 50.072C175.981 50.3707 176.373 50.52 176.895 50.52C177.045 50.52 177.194 50.52 177.343 50.52C177.53 50.52 177.698 50.5013 177.847 50.464C177.997 50.464 178.165 50.4453 178.351 50.408L179.023 54.44C178.762 54.5893 178.426 54.72 178.015 54.832C177.679 54.944 177.25 55.0373 176.727 55.112C176.242 55.1867 175.682 55.224 175.047 55.224ZM172.247 14.68C173.442 14.68 174.357 15.0347 174.991 15.744C175.626 16.4533 175.943 17.368 175.943 18.488C175.943 19.608 175.607 20.5413 174.935 21.288C174.301 22.0347 173.349 22.408 172.079 22.408C170.885 22.408 169.951 22.0533 169.279 21.344C168.645 20.5973 168.327 19.7013 168.327 18.656C168.327 17.4987 168.645 16.5467 169.279 15.8C169.951 15.0533 170.941 14.68 172.247 14.68ZM199.735 55V36.912C199.735 35.344 199.455 34.0933 198.895 33.16C198.335 32.1893 197.383 31.704 196.039 31.704C195.181 31.704 194.341 31.928 193.519 32.376C192.735 32.7867 192.026 33.4027 191.391 34.224C190.757 35.0453 190.234 36.0533 189.823 37.248C189.45 38.4053 189.263 39.712 189.263 41.168V55H182.879V40.888C182.879 38.648 182.73 36.7813 182.431 35.288C182.133 33.7573 181.815 32.5253 181.479 31.592C181.069 30.5093 180.621 29.632 180.135 28.96L185.175 26.944C185.549 27.3547 185.922 27.8587 186.295 28.456C186.594 28.9787 186.893 29.632 187.191 30.416C187.49 31.1627 187.733 32.0213 187.919 32.992C188.89 30.752 190.29 29.1467 192.119 28.176C193.949 27.168 195.871 26.664 197.887 26.664C200.762 26.664 202.834 27.5413 204.103 29.296C205.41 31.0133 206.063 33.3467 206.063 36.296V55H199.735Z" fill="#F6B8A9"/>
</svg>
