<svg width="128" height="39" viewBox="0 0 128 39" fill="none" xmlns="http://www.w3.org/2000/svg">
<path d="M34.5888 23.416C34.5888 21.9867 34.7808 20.728 35.1648 19.64C35.5701 18.552 36.1141 17.6453 36.7968 16.92C37.5008 16.1733 38.3221 15.6187 39.2608 15.256C40.1994 14.872 41.2128 14.68 42.3008 14.68C43.2608 14.68 44.0714 14.7973 44.7328 15.032C45.4154 15.2667 45.9701 15.5867 46.3968 15.992C46.8234 16.3973 47.1328 16.8773 47.3248 17.432C47.5381 17.9867 47.6448 18.584 47.6448 19.224C47.6448 19.992 47.4314 20.728 47.0048 21.432C46.5781 22.1147 45.9594 22.7227 45.1488 23.256C44.3594 23.768 43.3994 24.184 42.2688 24.504C41.1381 24.8027 39.8688 24.9627 38.4608 24.984C38.5248 25.4747 38.6208 25.944 38.7488 26.392C38.8981 26.8187 39.1008 27.2027 39.3568 27.544C39.6341 27.864 39.9861 28.12 40.4128 28.312C40.8394 28.504 41.3728 28.6 42.0128 28.6C42.4821 28.6 42.9834 28.5467 43.5168 28.44C44.0501 28.3333 44.5408 28.2053 44.9888 28.056C45.5221 27.8853 46.0448 27.6933 46.5568 27.48L47.5168 29.752C46.9621 30.0293 46.3648 30.2747 45.7248 30.488C45.1701 30.68 44.5301 30.8507 43.8048 31C43.0794 31.1493 42.3114 31.224 41.5008 31.224C40.2634 31.224 39.2074 31.0427 38.3328 30.68C37.4581 30.296 36.7434 29.7627 36.1888 29.08C35.6341 28.3973 35.2288 27.576 34.9728 26.616C34.7168 25.656 34.5888 24.5893 34.5888 23.416ZM42.0128 17.176C41.3088 17.176 40.7221 17.3467 40.2528 17.688C39.8048 18.008 39.4421 18.4347 39.1648 18.968C38.8874 19.48 38.6848 20.0667 38.5568 20.728C38.4501 21.368 38.3861 22.0187 38.3648 22.68C39.3888 22.6373 40.2528 22.5093 40.9568 22.296C41.6821 22.0613 42.2688 21.784 42.7168 21.464C43.1648 21.1227 43.4848 20.76 43.6768 20.376C43.8901 19.992 43.9968 19.608 43.9968 19.224C43.9968 18.6053 43.8154 18.1147 43.4528 17.752C43.0901 17.368 42.6101 17.176 42.0128 17.176ZM48.6013 15.064H51.4813L52.1213 11.32L55.1293 10.648V15.064H59.0653L58.6173 17.656H55.1293V27.128C55.1293 27.6827 55.2786 28.0453 55.5773 28.216C55.8759 28.3653 56.2066 28.44 56.5693 28.44C56.8679 28.44 57.1666 28.4187 57.4653 28.376C57.7639 28.3333 58.0306 28.28 58.2653 28.216C58.5426 28.152 58.8093 28.0773 59.0653 27.992L59.6733 30.392L59.3853 30.488C59.1933 30.5733 58.9053 30.6693 58.5213 30.776C58.1586 30.8613 57.7213 30.936 57.2093 31C56.7186 31.0853 56.1746 31.128 55.5773 31.128C54.9799 31.128 54.4253 31.064 53.9133 30.936C53.4226 30.808 52.9959 30.6053 52.6333 30.328C52.2706 30.0293 51.9826 29.656 51.7693 29.208C51.5773 28.76 51.4813 28.2053 51.4813 27.544V17.656H48.6013V15.064ZM74.319 23.288C74.319 24.568 74.3937 25.6453 74.543 26.52C74.7137 27.3733 74.895 28.0667 75.087 28.6C75.3217 29.24 75.5777 29.7413 75.855 30.104L73.007 31.256C72.7297 30.9787 72.4737 30.648 72.239 30.264C72.047 29.9227 71.8657 29.5173 71.695 29.048C71.5243 28.5573 71.4177 27.9813 71.375 27.32C71.0123 28.6 70.4257 29.5707 69.615 30.232C68.8257 30.872 67.7483 31.192 66.383 31.192C65.3803 31.192 64.5057 31.0107 63.759 30.648C63.0337 30.264 62.4257 29.7307 61.935 29.048C61.4443 28.344 61.0817 27.5013 60.847 26.52C60.6123 25.5387 60.495 24.4507 60.495 23.256C60.495 22.04 60.6763 20.92 61.039 19.896C61.423 18.8507 61.9457 17.9547 62.607 17.208C63.2897 16.4613 64.1003 15.8747 65.039 15.448C65.9777 15.0213 67.0123 14.808 68.143 14.808C68.783 14.808 69.4443 14.8613 70.127 14.968C70.831 15.0533 71.4817 15.1493 72.079 15.256C72.6763 15.3627 73.1777 15.4693 73.583 15.576C74.0097 15.6613 74.255 15.7147 74.319 15.736V23.288ZM66.991 28.632C67.5243 28.632 68.015 28.4507 68.463 28.088C68.911 27.7253 69.295 27.256 69.615 26.68C69.9563 26.0827 70.2123 25.4107 70.383 24.664C70.575 23.896 70.671 23.1173 70.671 22.328V17.72C70.4577 17.656 70.1377 17.5813 69.711 17.496C69.2843 17.4107 68.9003 17.368 68.559 17.368C67.7483 17.368 67.0763 17.5067 66.543 17.784C66.031 18.0613 65.615 18.4453 65.295 18.936C64.975 19.4267 64.751 20.0133 64.623 20.696C64.495 21.3787 64.431 22.1253 64.431 22.936C64.431 23.6827 64.4523 24.3973 64.495 25.08C64.5377 25.7627 64.6443 26.3707 64.815 26.904C65.007 27.4373 65.2737 27.864 65.615 28.184C65.9563 28.4827 66.415 28.632 66.991 28.632ZM96.2583 31V20.568C96.2583 19.672 96.1196 18.968 95.8423 18.456C95.5649 17.9227 95.0849 17.656 94.4023 17.656C93.9969 17.656 93.5809 17.7733 93.1543 18.008C92.7489 18.2213 92.3756 18.5413 92.0343 18.968C91.6929 19.3947 91.4156 19.9067 91.2023 20.504C90.9889 21.1013 90.8823 21.7627 90.8823 22.488V31H87.2663V20.568C87.2663 19.672 87.1276 18.968 86.8503 18.456C86.5729 17.9227 86.0929 17.656 85.4103 17.656C84.9836 17.656 84.5569 17.784 84.1302 18.04C83.7249 18.2747 83.3516 18.6267 83.0103 19.096C82.6903 19.5653 82.4236 20.1413 82.2103 20.824C82.0183 21.4853 81.9223 22.232 81.9223 23.064V31H78.2743V22.936C78.2743 21.656 78.1889 20.5893 78.0182 19.736C77.8476 18.8613 77.6663 18.1573 77.4743 17.624C77.2396 17.0053 76.9836 16.504 76.7063 16.12L79.5863 14.968C79.7996 15.2027 80.0129 15.4907 80.2263 15.832C80.3969 16.1307 80.5676 16.504 80.7383 16.952C80.9089 17.3787 81.0476 17.8693 81.1543 18.424C81.6876 17.144 82.4343 16.2267 83.3943 15.672C84.3756 15.096 85.4103 14.808 86.4983 14.808C87.5863 14.808 88.4289 15.0853 89.0263 15.64C89.6449 16.1947 90.1036 16.9093 90.4023 17.784C90.9783 16.7173 91.7143 15.96 92.6103 15.512C93.5276 15.0427 94.4876 14.808 95.4903 14.808C96.3223 14.808 97.0156 14.9467 97.5703 15.224C98.1463 15.48 98.5943 15.8533 98.9143 16.344C99.2556 16.8133 99.5009 17.3893 99.6503 18.072C99.7996 18.7333 99.8743 19.48 99.8743 20.312V31H96.2583ZM107.221 31.128C106.091 31.128 105.227 30.7973 104.629 30.136C104.032 29.4533 103.733 28.5787 103.733 27.512V15.064H107.381V27.192C107.381 27.6827 107.456 28.0133 107.605 28.184C107.755 28.3547 107.979 28.44 108.277 28.44C108.363 28.44 108.448 28.44 108.533 28.44C108.64 28.44 108.736 28.4293 108.821 28.408C108.907 28.408 109.003 28.3973 109.109 28.376L109.493 30.68C109.344 30.7653 109.152 30.84 108.917 30.904C108.725 30.968 108.48 31.0213 108.181 31.064C107.904 31.1067 107.584 31.128 107.221 31.128ZM105.621 7.96C106.304 7.96 106.827 8.16267 107.189 8.568C107.552 8.97333 107.733 9.496 107.733 10.136C107.733 10.776 107.541 11.3093 107.157 11.736C106.795 12.1627 106.251 12.376 105.525 12.376C104.843 12.376 104.309 12.1733 103.925 11.768C103.563 11.3413 103.381 10.8293 103.381 10.232C103.381 9.57067 103.563 9.02667 103.925 8.6C104.309 8.17333 104.875 7.96 105.621 7.96ZM121.969 31V20.664C121.969 19.768 121.809 19.0533 121.489 18.52C121.169 17.9653 120.625 17.688 119.857 17.688C119.366 17.688 118.886 17.816 118.417 18.072C117.969 18.3067 117.563 18.6587 117.201 19.128C116.838 19.5973 116.539 20.1733 116.305 20.856C116.091 21.5173 115.985 22.264 115.985 23.096V31H112.337V22.936C112.337 21.656 112.251 20.5893 112.081 19.736C111.91 18.8613 111.729 18.1573 111.537 17.624C111.302 17.0053 111.046 16.504 110.769 16.12L113.649 14.968C113.862 15.2027 114.075 15.4907 114.289 15.832C114.459 16.1307 114.63 16.504 114.801 16.952C114.971 17.3787 115.11 17.8693 115.217 18.424C115.771 17.144 116.571 16.2267 117.617 15.672C118.662 15.096 119.761 14.808 120.913 14.808C122.555 14.808 123.739 15.3093 124.465 16.312C125.211 17.2933 125.585 18.6267 125.585 20.312V31H121.969Z" fill="#F6B8A9"/>
<path d="M3.27938 8.57553C5.22694 5.98405 11.359 1.07149 20.3067 2.15316C29.2543 3.23482 31.8251 9.13891 31.992 11.9557C32.1033 14.7726 31.0906 20.9133 26.1494 22.9414C21.2081 24.9695 19.1938 22.547 18.8043 21.0823C18.6373 20.6316 19.2049 19.5612 22.8107 18.8852C23.7916 18.7012 24.4489 18.5799 24.8692 18.504C25.5631 17.9492 27.0388 16.2778 27.8187 13.6458C28.8203 10.2656 22.8107 11.6177 22.8107 11.4487C22.8107 11.2797 21.4752 11.2797 20.3067 8.57553C19.3718 6.41221 17.0236 6.54742 15.9664 6.88544C15.0761 7.44881 13.4957 8.98117 14.297 10.6037C15.0983 12.2262 15.7438 13.3078 15.9664 13.6458C16.4115 14.6036 17.0347 16.7894 15.9664 17.8711C14.898 18.9528 12.739 18.5471 11.793 18.2091C11.1809 17.8148 9.88997 16.7218 9.62288 15.505C9.35578 14.2881 9.73416 12.8571 9.95674 12.2938C10.068 11.9557 10.1237 11.2121 9.45594 10.9417C8.7882 10.6713 8.06482 12.6318 7.7866 13.6458C7.56402 14.0402 7.05209 15.3021 6.78499 17.1951C6.5179 19.088 7.00757 21.2513 7.2858 22.0963C7.39709 22.716 7.98692 24.5639 9.45594 26.9976C10.925 29.4314 11.8487 30.3778 12.1269 30.5468C12.2382 30.8285 12.394 31.4933 12.1269 31.8989C11.8598 32.3045 9.67852 31.3919 8.62127 30.8849C7.00757 29.6455 3.54647 26.6934 2.61164 24.8005C1.67681 22.9076 1.22052 20.0682 1.10923 18.8852C0.9423 17.8148 0.842139 15.0655 1.77697 12.6318C2.94551 9.5896 1.44311 13.6458 3.27938 8.57553Z" fill="#F6B8A9"/>
<path d="M17.9696 11.9557C17.3018 11.9557 17.2462 11.2797 17.3018 10.9417C17.3018 10.829 17.4354 10.6037 17.9696 10.6037C18.5038 10.6037 18.6373 10.9417 18.6373 11.1107C18.693 11.3924 18.6373 11.9557 17.9696 11.9557Z" fill="#F6B8A9"/>
<path d="M3.27938 8.57553C5.22694 5.98405 11.359 1.07149 20.3067 2.15316C29.2543 3.23482 31.8251 9.13891 31.992 11.9557C32.1033 14.7726 31.0906 20.9133 26.1494 22.9414C21.2081 24.9695 19.1938 22.547 18.8043 21.0823C18.6373 20.6316 19.2049 19.5612 22.8107 18.8852C23.7916 18.7012 24.4489 18.5799 24.8692 18.504C25.5631 17.9492 27.0388 16.2778 27.8187 13.6458C28.8203 10.2656 22.8107 11.6177 22.8107 11.4487C22.8107 11.2797 21.4752 11.2797 20.3067 8.57553C19.3718 6.41221 17.0236 6.54742 15.9664 6.88544C15.0761 7.44881 13.4957 8.98117 14.297 10.6037C15.0983 12.2262 15.7438 13.3078 15.9664 13.6458C16.4115 14.6036 17.0347 16.7894 15.9664 17.8711C14.898 18.9528 12.739 18.5471 11.793 18.2091C11.1809 17.8148 9.88997 16.7218 9.62288 15.505C9.35578 14.2881 9.73416 12.8571 9.95674 12.2938C10.068 11.9557 10.1237 11.2121 9.45594 10.9417C8.7882 10.6713 8.06482 12.6318 7.7866 13.6458C7.56402 14.0402 7.05209 15.3021 6.78499 17.1951C6.5179 19.088 7.00757 21.2513 7.2858 22.0963C7.39709 22.716 7.98692 24.5639 9.45594 26.9976C10.925 29.4314 11.8487 30.3778 12.1269 30.5468C12.2382 30.8285 12.394 31.4933 12.1269 31.8989C11.8598 32.3045 9.67852 31.3919 8.62127 30.8849C7.00757 29.6455 3.54647 26.6934 2.61164 24.8005C1.67681 22.9076 1.22052 20.0682 1.10923 18.8852C0.9423 17.8148 0.842139 15.0655 1.77697 12.6318C2.94551 9.5896 1.44311 13.6458 3.27938 8.57553Z" stroke="#F6B8A9"/>
<path d="M17.9696 11.9557C17.3018 11.9557 17.2462 11.2797 17.3018 10.9417C17.3018 10.829 17.4354 10.6037 17.9696 10.6037C18.5038 10.6037 18.6373 10.9417 18.6373 11.1107C18.693 11.3924 18.6373 11.9557 17.9696 11.9557Z" stroke="#F6B8A9"/>
</svg>
