<svg width="16" height="16" viewBox="0 0 16 16" fill="none" xmlns="http://www.w3.org/2000/svg">
<path d="M12.4361 11.73L14.3891 13.682C14.4802 13.7763 14.5306 13.9026 14.5294 14.0337C14.5283 14.1648 14.4757 14.2902 14.383 14.3829C14.2903 14.4756 14.1649 14.5282 14.0338 14.5293C13.9027 14.5304 13.7764 14.48 13.6821 14.389L11.7291 12.436C10.4528 13.5294 8.80269 14.086 7.1249 13.989C5.4471 13.8921 3.87208 13.149 2.73033 11.9158C1.58858 10.6826 0.968861 9.05507 1.00121 7.37478C1.03355 5.6945 1.71545 4.09205 2.90381 2.90369C4.09217 1.71532 5.69462 1.03343 7.3749 1.00108C9.05519 0.968739 10.6827 1.58846 11.9159 2.73021C13.1491 3.87196 13.8922 5.44698 13.9892 7.12477C14.0862 8.80257 13.5295 10.4527 12.4361 11.729V11.73ZM7.50008 13C8.95877 13 10.3577 12.4205 11.3892 11.389C12.4206 10.3576 13.0001 8.95865 13.0001 7.49996C13.0001 6.04127 12.4206 4.64232 11.3892 3.61087C10.3577 2.57942 8.95877 1.99996 7.50008 1.99996C6.04139 1.99996 4.64244 2.57942 3.61099 3.61087C2.57954 4.64232 2.00008 6.04127 2.00008 7.49996C2.00008 8.95865 2.57954 10.3576 3.61099 11.389C4.64244 12.4205 6.04139 13 7.50008 13V13Z" fill="black"/>
</svg>
