<svg fill="none" height="16" viewBox="0 0 16 16" width="16" xmlns="http://www.w3.org/2000/svg">
    <path
        d="M12.667 5.33334V4.00001H11.3337V2.66668H12.667V1.33334H14.0003V2.66668H15.3337V4.00001H14.0003V5.33334H12.667ZM2.00033 14.6667C1.63366 14.6667 1.31988 14.5362 1.05899 14.2753C0.797659 14.014 0.666992 13.7 0.666992 13.3333V5.33334C0.666992 4.96668 0.797659 4.6529 1.05899 4.39201C1.31988 4.13068 1.63366 4.00001 2.00033 4.00001H4.10033L5.33366 2.66668H9.33366V4.00001H5.91699L4.70033 5.33334H2.00033V13.3333H12.667V7.33334H14.0003V13.3333C14.0003 13.7 13.8699 14.014 13.609 14.2753C13.3477 14.5362 13.0337 14.6667 12.667 14.6667H2.00033ZM7.33366 12.3333C8.16699 12.3333 8.87544 12.0418 9.45899 11.4587C10.0421 10.8751 10.3337 10.1667 10.3337 9.33334C10.3337 8.50001 10.0421 7.79157 9.45899 7.20801C8.87544 6.6249 8.16699 6.33334 7.33366 6.33334C6.50033 6.33334 5.79188 6.6249 5.20833 7.20801C4.62521 7.79157 4.33366 8.50001 4.33366 9.33334C4.33366 10.1667 4.62521 10.8751 5.20833 11.4587C5.79188 12.0418 6.50033 12.3333 7.33366 12.3333ZM7.33366 11C6.86699 11 6.47255 10.8389 6.15033 10.5167C5.8281 10.1945 5.66699 9.80001 5.66699 9.33334C5.66699 8.86668 5.8281 8.47223 6.15033 8.15001C6.47255 7.82779 6.86699 7.66668 7.33366 7.66668C7.80033 7.66668 8.19477 7.82779 8.51699 8.15001C8.83921 8.47223 9.00033 8.86668 9.00033 9.33334C9.00033 9.80001 8.83921 10.1945 8.51699 10.5167C8.19477 10.8389 7.80033 11 7.33366 11Z"
        fill="currentColor" />
</svg>
