<svg width="23" height="26" viewBox="0 0 23 26" fill="none" xmlns="http://www.w3.org/2000/svg">
<path d="M22.7408 16.4006L20.3462 13.9737V10.7586C20.3434 8.53682 19.5279 6.39497 18.0573 4.74723C16.5868 3.09948 14.5656 2.06291 12.3846 1.83793V0H10.6154V1.83793C8.43443 2.06291 6.41325 3.09948 4.94267 4.74723C3.4721 6.39497 2.65659 8.53682 2.65385 10.7586V13.9737L0.259192 16.4006C0.0932832 16.5687 5.01023e-05 16.7967 0 17.0345V19.7241C0 19.9619 0.0932002 20.19 0.259098 20.3581C0.424995 20.5262 0.650001 20.6207 0.884615 20.6207H7.07692V21.5172C7.07692 22.7061 7.54292 23.8463 8.37241 24.687C9.2019 25.5277 10.3269 26 11.5 26C12.6731 26 13.7981 25.5277 14.6276 24.687C15.4571 23.8463 15.9231 22.7061 15.9231 21.5172V20.6207H22.1154C22.35 20.6207 22.575 20.5262 22.7409 20.3581C22.9068 20.19 23 19.9619 23 19.7241V17.0345C22.9999 16.7967 22.9067 16.5687 22.7408 16.4006ZM14.1538 21.5172C14.1538 22.2306 13.8742 22.9147 13.3766 23.4191C12.8789 23.9235 12.2038 24.2069 11.5 24.2069C10.7962 24.2069 10.1211 23.9235 9.62345 23.4191C9.12575 22.9147 8.84615 22.2306 8.84615 21.5172V20.6207H14.1538V21.5172Z" fill="#A9ACAD"/>
</svg>
