<svg width="28" height="28" viewBox="0 0 28 28" fill="none" xmlns="http://www.w3.org/2000/svg">
<path d="M16.3333 22.1667C20.7328 22.1667 22.9332 22.1667 24.2993 20.7993C25.6667 19.4332 25.6667 17.2328 25.6667 12.8333C25.6667 8.43383 25.6667 6.2335 24.2993 4.86733C22.9332 3.5 20.7328 3.5 16.3333 3.5H11.6667C7.26718 3.5 5.06684 3.5 3.70068 4.86733C2.33334 6.2335 2.33334 8.43383 2.33334 12.8333C2.33334 17.2328 2.33334 19.4332 3.70068 20.7993C4.46251 21.5623 5.48334 21.8995 7.00001 22.0477" stroke="#A9ACAD" stroke-width="2" stroke-linecap="round" stroke-linejoin="round"/>
<path d="M16.3333 22.1667C14.8913 22.1667 13.3023 22.7501 11.8522 23.5026C9.52117 24.7124 8.35567 25.3179 7.78167 24.9317C7.20767 24.5467 7.31617 23.3509 7.53434 20.9604L7.58334 20.4167" stroke="#A9ACAD" stroke-width="2" stroke-linecap="round"/>
</svg>
