<svg width="28" height="28" viewBox="0 0 28 28" fill="none" xmlns="http://www.w3.org/2000/svg">
<path d="M14 2.33325C7.56698 2.33325 2.33331 7.56692 2.33331 13.9999C2.33331 20.4329 7.56698 25.6666 14 25.6666C20.433 25.6666 25.6666 20.4329 25.6666 13.9999C25.6666 7.56692 20.433 2.33325 14 2.33325ZM14 23.3333C8.85381 23.3333 4.66665 19.1461 4.66665 13.9999C4.66665 8.85375 8.85381 4.66659 14 4.66659C19.1461 4.66659 23.3333 8.85375 23.3333 13.9999C23.3333 19.1461 19.1461 23.3333 14 23.3333Z" fill="#A9ACAD"/>
<path d="M9.33331 18.6666L16.3228 16.3333L18.6666 9.33325L11.6666 11.6666L9.33331 18.6666Z" fill="#A9ACAD"/>
</svg>
