<svg width="16" height="16" viewBox="0 0 16 16" fill="none" xmlns="http://www.w3.org/2000/svg">
<path d="M8 10C9.06087 10 10.0783 9.57857 10.8284 8.82843C11.5786 8.07828 12 7.06087 12 6C12 4.93913 11.5786 3.92172 10.8284 3.17157C10.0783 2.42143 9.06087 2 8 2C6.93913 2 5.92172 2.42143 5.17157 3.17157C4.42143 3.92172 4 4.93913 4 6C4 7.06087 4.42143 8.07828 5.17157 8.82843C5.92172 9.57857 6.93913 10 8 10V10ZM8 11C6.67392 11 5.40215 10.4732 4.46447 9.53553C3.52678 8.59785 3 7.32608 3 6C3 4.67392 3.52678 3.40215 4.46447 2.46447C5.40215 1.52678 6.67392 1 8 1C9.32608 1 10.5979 1.52678 11.5355 2.46447C12.4732 3.40215 13 4.67392 13 6C13 7.32608 12.4732 8.59785 11.5355 9.53553C10.5979 10.4732 9.32608 11 8 11Z" fill="black"/>
<path d="M8 10C8.33333 10 8.5 10.1667 8.5 10.5V14.5C8.5 14.8333 8.33333 15 8 15C7.66667 15 7.5 14.8333 7.5 14.5V10.5C7.5 10.1667 7.66667 10 8 10Z" fill="black"/>
<path d="M5.5 12.5H10.5C10.8333 12.5 11 12.6667 11 13C11 13.3333 10.8333 13.5 10.5 13.5H5.5C5.16667 13.5 5 13.3333 5 13C5 12.6667 5.16667 12.5 5.5 12.5Z" fill="black"/>
</svg>
