<svg width="16" height="16" viewBox="0 0 16 16" fill="none" xmlns="http://www.w3.org/2000/svg">
<path d="M6.24219 13.2734C7.17459 13.2734 8.0688 12.903 8.72811 12.2437C9.38742 11.5844 9.75781 10.6902 9.75781 9.75781C9.75781 8.82541 9.38742 7.9312 8.72811 7.27189C8.0688 6.61258 7.17459 6.24219 6.24219 6.24219C5.30979 6.24219 4.41557 6.61258 3.75627 7.27189C3.09696 7.9312 2.72656 8.82541 2.72656 9.75781C2.72656 10.6902 3.09696 11.5844 3.75627 12.2437C4.41557 12.903 5.30979 13.2734 6.24219 13.2734V13.2734ZM6.24219 14.1523C5.07669 14.1523 3.95892 13.6893 3.13478 12.8652C2.31065 12.0411 1.84766 10.9233 1.84766 9.75781C1.84766 8.59231 2.31065 7.47454 3.13478 6.65041C3.95892 5.82628 5.07669 5.36328 6.24219 5.36328C7.40769 5.36328 8.52546 5.82628 9.34959 6.65041C10.1737 7.47454 10.6367 8.59231 10.6367 9.75781C10.6367 10.9233 10.1737 12.0411 9.34959 12.8652C8.52546 13.6893 7.40769 14.1523 6.24219 14.1523V14.1523ZM10.1973 1.84766H13.7129C14.0059 1.84766 14.1523 1.99414 14.1523 2.28711C14.1523 2.58008 14.0059 2.72656 13.7129 2.72656H10.1973C9.9043 2.72656 9.75781 2.58008 9.75781 2.28711C9.75781 1.99414 9.9043 1.84766 10.1973 1.84766Z" fill="black"/>
<path d="M13.7129 1.84766C14.0059 1.84766 14.1523 1.99414 14.1523 2.28711V5.80273C14.1523 6.0957 14.0059 6.24219 13.7129 6.24219C13.4199 6.24219 13.2734 6.0957 13.2734 5.80273V2.28711C13.2734 1.99414 13.4199 1.84766 13.7129 1.84766Z" fill="black"/>
<path d="M9.45059 7.17028L8.83008 6.54889L13.4022 1.97595L14.0244 2.5982L9.45059 7.17028Z" fill="black"/>
</svg>
