<svg width="14" height="14" viewBox="0 0 14 14" fill="none" xmlns="http://www.w3.org/2000/svg">
<path d="M7.13004 6.79068L6.99995 6.91901L6.86929 6.79068C6.62648 6.55097 6.29902 6.41656 5.95783 6.41656C5.61663 6.41656 5.28917 6.55097 5.04637 6.79068C4.92586 6.90661 4.83 7.04567 4.76452 7.19953C4.69904 7.35339 4.66528 7.51888 4.66528 7.68609C4.66528 7.85331 4.69904 8.0188 4.76452 8.17266C4.83 8.32652 4.92586 8.46558 5.04637 8.58151L6.99995 10.5001L8.95354 8.58151C9.07404 8.46558 9.1699 8.32652 9.23539 8.17266C9.30087 8.0188 9.33462 7.85331 9.33462 7.68609C9.33462 7.51888 9.30087 7.35339 9.23539 7.19953C9.1699 7.04567 9.07404 6.90661 8.95354 6.79068C8.71063 6.55093 8.38308 6.4165 8.04179 6.4165C7.70049 6.4165 7.37294 6.55093 7.13004 6.79068Z" fill="white"/>
<path d="M12.6624 6.58754L7.41237 1.33754C7.35825 1.28332 7.29396 1.24031 7.2232 1.21096C7.15243 1.18161 7.07657 1.1665 6.99996 1.1665C6.92335 1.1665 6.84749 1.18161 6.77672 1.21096C6.70595 1.24031 6.64167 1.28332 6.58754 1.33754L1.33754 6.58754C1.25598 6.66912 1.20045 6.77305 1.17795 6.88619C1.15545 6.99933 1.167 7.11659 1.21114 7.22317C1.25529 7.32974 1.33003 7.42084 1.42594 7.48494C1.52185 7.54904 1.6346 7.58326 1.74996 7.58329H2.33329V11.6666C2.33329 12.31 2.85654 12.8333 3.49996 12.8333H10.5C11.1434 12.8333 11.6666 12.31 11.6666 11.6666V7.58329H12.25C12.3653 7.58326 12.4781 7.54904 12.574 7.48494C12.6699 7.42084 12.7446 7.32974 12.7888 7.22317C12.8329 7.11659 12.8445 6.99933 12.822 6.88619C12.7995 6.77305 12.7439 6.66912 12.6624 6.58754ZM10.5005 11.6666H3.49996V6.07537L6.99996 2.57537L10.5 6.07537V8.74995L10.5005 11.6666Z" fill="white"/>
</svg>
