<svg width="28" height="28" viewBox="0 0 28 28" fill="none" xmlns="http://www.w3.org/2000/svg">
<path d="M10.5 19.8334H17.5M19.8333 24.5001H8.16667C6.92899 24.5001 5.742 24.0084 4.86683 23.1333C3.99167 22.2581 3.5 21.0711 3.5 19.8334V12.4928C3.49998 11.6904 3.70687 10.9015 4.10068 10.2024C4.49449 9.50324 5.06192 8.91746 5.74817 8.50161L11.5815 4.96661C12.3108 4.52467 13.1472 4.29102 14 4.29102C14.8528 4.29102 15.6892 4.52467 16.4185 4.96661L22.2518 8.50161C22.9379 8.91736 23.5052 9.50295 23.899 10.2019C24.2928 10.9008 24.4998 11.6894 24.5 12.4916V19.8334C24.5 21.0711 24.0083 22.2581 23.1332 23.1333C22.258 24.0084 21.071 24.5001 19.8333 24.5001Z" stroke="#A9ACAD" stroke-width="1.75" stroke-linecap="round" stroke-linejoin="round"/>
</svg>
