<svg width="14" height="14" viewBox="0 0 14 14" fill="none" xmlns="http://www.w3.org/2000/svg">
<path d="M13.9687 0.600073C14.0005 0.520568 14.0083 0.433471 13.9911 0.34958C13.9739 0.26569 13.9324 0.188694 13.8719 0.128139C13.8113 0.0675844 13.7343 0.0261331 13.6504 0.00892433C13.5665 -0.00828448 13.4794 -0.000494011 13.3999 0.0313299L0.671758 5.12289L0.275396 5.28039C0.200491 5.31027 0.135301 5.36027 0.0870292 5.42488C0.0387573 5.48948 0.00928147 5.56617 0.00185775 5.64647C-0.00556596 5.72678 0.00935133 5.80757 0.0449618 5.87993C0.0805724 5.95229 0.13549 6.0134 0.203649 6.0565L0.562387 6.284L0.563262 6.28575L4.93373 9.06647L7.71439 13.437L7.71614 13.4388L7.94363 13.7975C7.98687 13.8654 8.04801 13.9201 8.12032 13.9555C8.19262 13.9909 8.27328 14.0056 8.35343 13.9981C8.43358 13.9906 8.5101 13.9611 8.57457 13.9129C8.63905 13.8647 8.68897 13.7997 8.71885 13.7249L13.9687 0.600073ZM12.3649 2.2538L5.80783 8.81097L5.61971 8.51522C5.58524 8.46095 5.53924 8.41494 5.48497 8.38048L5.18923 8.19235L11.7462 1.63518L12.777 1.22306L12.3649 2.2538Z" fill="#A9ACAD"/>
<path d="M12.3649 2.2538L5.80783 8.81097L5.61971 8.51522C5.58524 8.46095 5.53924 8.41494 5.48497 8.38048L5.18923 8.19235L11.7462 1.63518L12.777 1.22306L12.3649 2.2538Z" fill="#A9ACAD"/>
</svg>
