<svg width="28" height="28" viewBox="0 0 28 28" fill="none" xmlns="http://www.w3.org/2000/svg">
<path fill-rule="evenodd" clip-rule="evenodd" d="M3.17915 13.1542C3.74304 13.7181 4.43331 14 5.24998 14C6.06665 14 6.75692 13.7181 7.32081 13.1542C7.8847 12.5903 8.16665 11.9 8.16665 11.0833C8.16665 10.2667 7.8847 9.57639 7.32081 9.0125C6.75692 8.44861 6.06665 8.16667 5.24998 8.16667C4.43331 8.16667 3.74304 8.44861 3.17915 9.0125C2.61526 9.57639 2.33331 10.2667 2.33331 11.0833C2.33331 11.9 2.61526 12.5903 3.17915 13.1542ZM8.42915 8.4875C8.99303 9.05139 9.68331 9.33333 10.5 9.33333C11.3166 9.33333 12.0069 9.05139 12.5708 8.4875C13.1347 7.92361 13.4166 7.23333 13.4166 6.41667C13.4166 5.6 13.1347 4.90972 12.5708 4.34583C12.0069 3.78194 11.3166 3.5 10.5 3.5C9.68331 3.5 8.99303 3.78194 8.42915 4.34583C7.86526 4.90972 7.58331 5.6 7.58331 6.41667C7.58331 7.23333 7.86526 7.92361 8.42915 8.4875ZM15.4291 8.4875C15.993 9.05139 16.6833 9.33333 17.5 9.33333C18.3166 9.33333 19.0069 9.05139 19.5708 8.4875C20.1347 7.92361 20.4166 7.23333 20.4166 6.41667C20.4166 5.6 20.1347 4.90972 19.5708 4.34583C19.0069 3.78194 18.3166 3.5 17.5 3.5C16.6833 3.5 15.993 3.78194 15.4291 4.34583C14.8653 4.90972 14.5833 5.6 14.5833 6.41667C14.5833 7.23333 14.8653 7.92361 15.4291 8.4875ZM20.6791 13.1542C21.243 13.7181 21.9333 14 22.75 14C23.5666 14 24.2569 13.7181 24.8208 13.1542C25.3847 12.5903 25.6666 11.9 25.6666 11.0833C25.6666 10.2667 25.3847 9.57639 24.8208 9.0125C24.2569 8.44861 23.5666 8.16667 22.75 8.16667C21.9333 8.16667 21.243 8.44861 20.6791 9.0125C20.1153 9.57639 19.8333 10.2667 19.8333 11.0833C19.8333 11.9 20.1153 12.5903 20.6791 13.1542ZM5.55681 24.6598C6.14948 25.3311 6.88331 25.6667 7.75831 25.6667C8.80831 25.6667 9.84859 25.5792 10.8791 25.4042C11.9097 25.2292 12.95 25.1417 14 25.1417C15.05 25.1417 16.0903 25.2292 17.1208 25.4042C18.1514 25.5792 19.1916 25.6667 20.2416 25.6667C21.1166 25.6667 21.8509 25.3311 22.4443 24.6598C23.037 23.9894 23.3333 23.1972 23.3333 22.2833C23.3333 21.2722 22.9884 20.3875 22.2985 19.6292C21.6078 18.8708 20.9222 18.1222 20.2416 17.3833C19.6778 16.7611 19.1866 16.0903 18.7681 15.3708C18.3505 14.6514 17.8694 13.9806 17.325 13.3583C16.8972 12.8528 16.4014 12.4444 15.8375 12.1333C15.2736 11.8222 14.6611 11.6667 14 11.6667C13.3389 11.6667 12.7264 11.8319 12.1625 12.1625C11.5986 12.4931 11.1028 12.9111 10.675 13.4167C10.1111 14.0389 9.62498 14.7047 9.21665 15.414C8.80831 16.1241 8.3222 16.7806 7.75831 17.3833C7.07776 18.1222 6.39254 18.8708 5.70265 19.6292C5.01198 20.3875 4.66665 21.2722 4.66665 22.2833C4.66665 23.1972 4.96337 23.9894 5.55681 24.6598ZM8.74998 6.41667C8.74998 5.47815 9.56571 4.66667 10.5 4.66667C11.4342 4.66667 12.25 5.38305 12.25 6.41667C12.25 7.45029 11.4877 8.16667 10.5 8.16667C9.51221 8.16667 8.74998 7.35518 8.74998 6.41667ZM17.5 4.66667C16.3333 4.66667 15.7821 5.83333 15.7821 6.41748C15.7821 7.32357 16.5612 8.16667 17.5 8.16667C18.4388 8.16667 19.25 7.58333 19.25 6.41667C19.25 5.50977 18.6666 4.66667 17.5 4.66667ZM21 11.0833C21 10.0534 21.916 9.33333 22.75 9.33333C23.584 9.33333 24.5 10.2266 24.5 11.0833C24.5 11.9401 23.6341 12.8333 22.75 12.8333C21.8659 12.8333 21 12.1133 21 11.0833ZM5.24998 9.33333C4.08331 9.33333 3.49998 10.222 3.49998 11.0833C3.49998 11.9447 4.08331 12.8333 5.24998 12.8333C6.41665 12.8333 6.99998 11.9629 6.99998 11.0833C6.99998 10.2038 6.41665 9.33333 5.24998 9.33333ZM10.5 15.1667C11.0833 14 12.8333 12.8333 14 12.8333C15.4 12.8333 17.1111 14.3889 17.5 15.1667C17.7046 15.4395 17.9092 15.808 18.139 16.2219C18.5643 16.9879 19.0759 17.9092 19.8333 18.6667L21.5833 20.4167C22.1666 21 22.1666 21.5833 22.1666 22.2833C22.1666 22.3105 22.1667 22.3371 22.1667 22.3632C22.1676 23.009 22.1681 23.3319 21.5833 23.9167C21.0305 24.4695 20.9938 24.4747 20.429 24.5552C20.3722 24.5633 20.3101 24.5721 20.2416 24.5824C19.3908 24.7096 18.8967 24.5822 17.9514 24.3384C17.7088 24.2758 17.4365 24.2056 17.1208 24.1301C16.2103 23.9122 15.3423 23.914 14.317 23.9162C14.213 23.9164 14.1074 23.9167 14 23.9167C12.8333 23.9167 11.6666 23.9167 10.8791 24.1402C10.0916 24.3637 8.74998 24.5 7.75831 24.5C6.96498 24.5 6.53331 24.1111 6.41665 23.9167C6.2222 23.7222 5.83331 23.1233 5.83331 22.2833C5.83331 21.2333 5.91702 20.6208 6.99998 19.8333C7.67449 19.3429 7.86059 19.1115 8.10872 18.8031C8.25899 18.6164 8.43199 18.4013 8.74998 18.0833C9.60404 17.2293 9.83288 16.6878 10.123 16.0013C10.2293 15.75 10.3437 15.4793 10.5 15.1667Z" fill="#A9ACAD"/>
<path d="M21.5833 20.4167C22.1666 21 22.1666 21.5833 22.1666 22.2833C22.1666 22.3105 22.1667 22.3371 22.1667 22.3632C22.1676 23.009 22.1681 23.3319 21.5833 23.9167C21.0305 24.4695 20.9938 24.4747 20.429 24.5552C20.3722 24.5633 20.3101 24.5721 20.2416 24.5824C19.3908 24.7096 18.8967 24.5822 17.9514 24.3384C17.7088 24.2758 17.4365 24.2056 17.1208 24.1301C16.2103 23.9122 15.3423 23.914 14.317 23.9162C14.213 23.9164 14.1074 23.9167 14 23.9167C12.8333 23.9167 11.6666 23.9167 10.8791 24.1402C10.0916 24.3637 8.74998 24.5 7.75831 24.5C6.96498 24.5 6.53331 24.1111 6.41665 23.9167C6.2222 23.7222 5.83331 23.1233 5.83331 22.2833C5.83331 21.2333 5.91702 20.6208 6.99998 19.8333C7.67449 19.3429 7.86059 19.1115 8.10872 18.8031C8.25899 18.6164 8.43199 18.4013 8.74998 18.0833C9.60404 17.2293 9.83288 16.6878 10.123 16.0013C10.2293 15.75 10.3437 15.4793 10.5 15.1667C11.0833 14 12.8333 12.8333 14 12.8333C15.4 12.8333 17.1111 14.3889 17.5 15.1667C17.7046 15.4395 17.9092 15.808 18.139 16.2219C18.5643 16.9879 19.0759 17.9092 19.8333 18.6667M21.5833 20.4167C21 19.8333 20.7556 19.589 19.8333 18.6667M21.5833 20.4167L19.8333 18.6667M5.24998 14C4.43331 14 3.74304 13.7181 3.17915 13.1542C2.61526 12.5903 2.33331 11.9 2.33331 11.0833C2.33331 10.2667 2.61526 9.57639 3.17915 9.0125C3.74304 8.44861 4.43331 8.16667 5.24998 8.16667C6.06665 8.16667 6.75692 8.44861 7.32081 9.0125C7.8847 9.57639 8.16665 10.2667 8.16665 11.0833C8.16665 11.9 7.8847 12.5903 7.32081 13.1542C6.75692 13.7181 6.06665 14 5.24998 14ZM10.5 9.33333C9.68331 9.33333 8.99303 9.05139 8.42915 8.4875C7.86526 7.92361 7.58331 7.23333 7.58331 6.41667C7.58331 5.6 7.86526 4.90972 8.42915 4.34583C8.99303 3.78194 9.68331 3.5 10.5 3.5C11.3166 3.5 12.0069 3.78194 12.5708 4.34583C13.1347 4.90972 13.4166 5.6 13.4166 6.41667C13.4166 7.23333 13.1347 7.92361 12.5708 8.4875C12.0069 9.05139 11.3166 9.33333 10.5 9.33333ZM17.5 9.33333C16.6833 9.33333 15.993 9.05139 15.4291 8.4875C14.8653 7.92361 14.5833 7.23333 14.5833 6.41667C14.5833 5.6 14.8653 4.90972 15.4291 4.34583C15.993 3.78194 16.6833 3.5 17.5 3.5C18.3166 3.5 19.0069 3.78194 19.5708 4.34583C20.1347 4.90972 20.4166 5.6 20.4166 6.41667C20.4166 7.23333 20.1347 7.92361 19.5708 8.4875C19.0069 9.05139 18.3166 9.33333 17.5 9.33333ZM22.75 14C21.9333 14 21.243 13.7181 20.6791 13.1542C20.1153 12.5903 19.8333 11.9 19.8333 11.0833C19.8333 10.2667 20.1153 9.57639 20.6791 9.0125C21.243 8.44861 21.9333 8.16667 22.75 8.16667C23.5666 8.16667 24.2569 8.44861 24.8208 9.0125C25.3847 9.57639 25.6666 10.2667 25.6666 11.0833C25.6666 11.9 25.3847 12.5903 24.8208 13.1542C24.2569 13.7181 23.5666 14 22.75 14ZM7.75831 25.6667C6.88331 25.6667 6.14948 25.3311 5.55681 24.6598C4.96337 23.9894 4.66665 23.1972 4.66665 22.2833C4.66665 21.2722 5.01198 20.3875 5.70265 19.6292C6.39254 18.8708 7.07776 18.1222 7.75831 17.3833C8.3222 16.7806 8.80831 16.1241 9.21665 15.414C9.62498 14.7047 10.1111 14.0389 10.675 13.4167C11.1028 12.9111 11.5986 12.4931 12.1625 12.1625C12.7264 11.8319 13.3389 11.6667 14 11.6667C14.6611 11.6667 15.2736 11.8222 15.8375 12.1333C16.4014 12.4444 16.8972 12.8528 17.325 13.3583C17.8694 13.9806 18.3505 14.6514 18.7681 15.3708C19.1866 16.0903 19.6778 16.7611 20.2416 17.3833C20.9222 18.1222 21.6078 18.8708 22.2985 19.6292C22.9884 20.3875 23.3333 21.2722 23.3333 22.2833C23.3333 23.1972 23.037 23.9894 22.4443 24.6598C21.8509 25.3311 21.1166 25.6667 20.2416 25.6667C19.1916 25.6667 18.1514 25.5792 17.1208 25.4042C16.0903 25.2292 15.05 25.1417 14 25.1417C12.95 25.1417 11.9097 25.2292 10.8791 25.4042C9.84859 25.5792 8.80831 25.6667 7.75831 25.6667ZM10.5 4.66667C9.56571 4.66667 8.74998 5.47815 8.74998 6.41667C8.74998 7.35518 9.51221 8.16667 10.5 8.16667C11.4877 8.16667 12.25 7.45029 12.25 6.41667C12.25 5.38305 11.4342 4.66667 10.5 4.66667ZM17.5 4.66667C16.3333 4.66667 15.7821 5.83333 15.7821 6.41748C15.7821 7.32357 16.5612 8.16667 17.5 8.16667C18.4388 8.16667 19.25 7.58333 19.25 6.41667C19.25 5.50977 18.6666 4.66667 17.5 4.66667ZM22.75 9.33333C21.916 9.33333 21 10.0534 21 11.0833C21 12.1133 21.8659 12.8333 22.75 12.8333C23.6341 12.8333 24.5 11.9401 24.5 11.0833C24.5 10.2266 23.584 9.33333 22.75 9.33333ZM5.24998 9.33333C4.08331 9.33333 3.49998 10.222 3.49998 11.0833C3.49998 11.9447 4.08331 12.8333 5.24998 12.8333C6.41665 12.8333 6.99998 11.9629 6.99998 11.0833C6.99998 10.2038 6.41665 9.33333 5.24998 9.33333Z" stroke="#A9ACAD" stroke-width="0.7"/>
</svg>
