<svg width="16" height="16" viewBox="0 0 16 16" fill="none" xmlns="http://www.w3.org/2000/svg">
<path d="M10.8745 4.25004C10.8745 4.37365 10.8379 4.49449 10.7692 4.59727C10.7005 4.70005 10.6029 4.78016 10.4887 4.82747C10.3745 4.87477 10.2488 4.88715 10.1276 4.86303C10.0064 4.83892 9.89499 4.77939 9.80758 4.69198C9.72017 4.60457 9.66065 4.49321 9.63653 4.37197C9.61241 4.25073 9.62479 4.12507 9.6721 4.01086C9.7194 3.89666 9.79951 3.79905 9.90229 3.73037C10.0051 3.6617 10.1259 3.62504 10.2495 3.62504C10.4153 3.62504 10.5743 3.69089 10.6915 3.8081C10.8087 3.92531 10.8745 4.08428 10.8745 4.25004ZM7.73702 8.21254C7.6995 8.18082 7.65602 8.15692 7.60914 8.14224C7.56225 8.12757 7.51291 8.1224 7.464 8.12706C7.41509 8.13172 7.36761 8.1461 7.32433 8.16937C7.28106 8.19263 7.24288 8.22431 7.21202 8.26254L4.71202 11.2625C4.6672 11.3173 4.63879 11.3836 4.63007 11.4539C4.62136 11.5241 4.63268 11.5953 4.66275 11.6594C4.69282 11.7234 4.7404 11.7777 4.79999 11.8159C4.85958 11.854 4.92876 11.8745 4.99952 11.875C5.05475 11.8755 5.10936 11.8634 5.15919 11.8396C5.20902 11.8157 5.25274 11.7808 5.28702 11.7375L7.78702 8.73754C7.81874 8.70002 7.84264 8.65654 7.85732 8.60966C7.872 8.56277 7.87716 8.51343 7.8725 8.46452C7.86784 8.41561 7.85346 8.36813 7.83019 8.32486C7.80693 8.28158 7.77525 8.2434 7.73702 8.21254ZM14.8745 5.00004C14.8744 5.06202 14.8589 5.123 14.8295 5.17753C14.8 5.23207 14.7575 5.27845 14.7058 5.31254L13.3745 6.20004V7.50004C13.3712 9.18978 12.6985 10.8094 11.5037 12.0042C10.3088 13.199 8.68926 13.8717 6.99952 13.875H0.49952C0.429333 13.8748 0.360631 13.8548 0.301229 13.8174C0.241827 13.78 0.19411 13.7267 0.163505 13.6636C0.1329 13.6004 0.120636 13.5299 0.128108 13.4601C0.135579 13.3903 0.162487 13.324 0.20577 13.2688L6.12452 5.86879V4.75004C6.12369 3.88055 6.43542 3.03972 7.00286 2.3809C7.57029 1.72209 8.35563 1.28917 9.21565 1.16112C10.0757 1.03306 10.9531 1.2184 11.6878 1.68332C12.4226 2.14824 12.9657 2.86177 13.2183 3.69379L14.7058 4.68754C14.7575 4.72163 14.8 4.76801 14.8295 4.82255C14.8589 4.87708 14.8744 4.93806 14.8745 5.00004ZM13.8245 5.00004L12.687 4.24379C12.6113 4.19108 12.5561 4.1138 12.5308 4.02504C12.3538 3.34918 11.9368 2.76088 11.3577 2.37009C10.7786 1.97929 10.077 1.81274 9.384 1.90156C8.69103 1.99039 8.05411 2.3285 7.59228 2.85272C7.13044 3.37695 6.8753 4.0514 6.87452 4.75004V6.00004C6.8746 6.08413 6.84593 6.16573 6.79327 6.23129L1.28077 13.125H6.99952C8.49086 13.1234 9.92064 12.5302 10.9752 11.4757C12.0297 10.4212 12.6229 8.99138 12.6245 7.50004V6.00004C12.6246 5.93806 12.6401 5.87708 12.6696 5.82255C12.699 5.76801 12.7415 5.72163 12.7933 5.68754L13.8245 5.00004Z" fill="#0E333C"/>
</svg>
