<svg width="16" height="16" viewBox="0 0 16 16" fill="none" xmlns="http://www.w3.org/2000/svg">
<path d="M8.41006 12.008H10.1085C10.4523 12.0078 10.7881 11.9032 11.0711 11.7079C11.3541 11.5126 11.5711 11.2358 11.6933 10.9144C12.3997 10.9704 13.1253 10.7272 13.6661 10.1848C14.136 9.71252 14.3999 9.07339 14.3999 8.40716C14.3999 7.74092 14.136 7.10179 13.6661 6.62956L10.2901 3.25916C10.1776 3.14637 10.044 3.05688 9.89692 2.99581C9.74982 2.93475 9.59212 2.90332 9.43286 2.90332C9.27359 2.90332 9.11589 2.93475 8.9688 2.99581C8.8217 3.05688 8.6881 3.14637 8.57566 3.25916C8.34845 3.48722 8.22087 3.79603 8.22087 4.11796C8.22087 4.43989 8.34845 4.7487 8.57566 4.97676L9.64926 6.04076C9.55672 6.16499 9.47457 6.29663 9.40366 6.43436C9.26123 6.41253 9.11735 6.40157 8.97326 6.40156H6.03246C5.76926 6.40156 5.51486 6.43756 5.27326 6.50396C5.09278 6.22862 4.84711 6.00209 4.55807 5.84448C4.26904 5.68687 3.94556 5.60305 3.61635 5.60045C3.28714 5.59786 2.96238 5.67657 2.6709 5.82961C2.37941 5.98265 2.13021 6.20527 1.9454 6.47773C1.7606 6.75019 1.64592 7.06405 1.61153 7.39147C1.57714 7.71889 1.6241 8.04973 1.74826 8.35464C1.87242 8.65955 2.06992 8.9291 2.32325 9.13936C2.57658 9.34962 2.8779 9.49409 3.20046 9.55996V10.3072C3.20046 11.2464 3.95886 12.0088 4.89806 12.0088H8.41006V12.008ZM9.72446 3.82396V3.82476L13.1005 7.19436C13.4208 7.51674 13.6006 7.95283 13.6004 8.40732C13.6003 8.86182 13.4202 9.29778 13.0997 9.61996C12.8931 9.82794 12.6363 9.97906 12.3541 10.0587C12.072 10.1383 11.7741 10.1437 11.4893 10.0744L11.0501 9.96796L10.9981 10.416C10.9453 10.8632 10.5661 11.208 10.1085 11.208H8.80766V11.128C8.80766 10.2264 7.99166 9.59996 7.11006 9.59996H6.00046C5.89437 9.59996 5.79263 9.6421 5.71762 9.71711C5.6426 9.79213 5.60046 9.89387 5.60046 9.99996C5.60046 10.106 5.6426 10.2078 5.71762 10.2828C5.79263 10.3578 5.89437 10.4 6.00046 10.4H7.11006C7.66206 10.4 8.00766 10.7712 8.00766 11.128V11.208H4.89806C4.77991 11.2077 4.66295 11.1843 4.55389 11.1388C4.44482 11.0934 4.34577 11.0269 4.26241 10.9432C4.17905 10.8594 4.11301 10.7601 4.06806 10.6508C4.02312 10.5416 4.00014 10.4245 4.00046 10.3064V9.24236C3.9994 8.7023 4.21286 8.18393 4.59391 7.80123C4.97496 7.41853 5.4924 7.20283 6.03246 7.20156H8.97326C9.16366 7.20156 9.34846 7.22796 9.52206 7.27676L9.86046 7.37196L9.99806 7.04876C10.0869 6.84076 10.2101 6.59516 10.3757 6.41836L10.7781 6.03276L9.14206 4.41196C9.06433 4.33385 9.0207 4.22815 9.0207 4.11796C9.0207 4.00777 9.06433 3.90206 9.14206 3.82396C9.1802 3.78555 9.22557 3.75506 9.27555 3.73426C9.32553 3.71346 9.37913 3.70275 9.43326 3.70275C9.48739 3.70275 9.54099 3.71346 9.59097 3.73426C9.64095 3.75506 9.68631 3.78555 9.72446 3.82396ZM4.52606 6.83596C4.19107 7.04736 3.90396 7.32644 3.68312 7.65528C3.46228 7.98413 3.3126 8.35549 3.24366 8.74556C3.06526 8.68997 2.90231 8.5935 2.76779 8.46381C2.63326 8.33413 2.53088 8.17482 2.4688 7.99858C2.40672 7.82234 2.38665 7.63404 2.41019 7.44867C2.43374 7.2633 2.50025 7.086 2.60442 6.93088C2.7086 6.77575 2.84755 6.6471 3.01023 6.55517C3.1729 6.46324 3.3548 6.41056 3.54143 6.40134C3.72806 6.39213 3.91426 6.42662 4.0852 6.50207C4.25615 6.57753 4.40711 6.69186 4.52606 6.83596Z" fill="#0E333C"/>
</svg>
