<svg width="16" height="16" viewBox="0 0 16 16" fill="none" xmlns="http://www.w3.org/2000/svg">
<path d="M12.2906 5.04153L10.4541 2.38866C10.318 2.19245 10.1371 2.0315 9.92637 1.91915C9.71564 1.8068 9.48118 1.74629 9.24241 1.74263L5.75719 1.69263H5.75C3.95066 1.69263 2.57009 1.9936 1.68094 3.46244C0.853125 4.82969 0.5 7.15872 0.5 11.25V11.75H1.64241L0.907 15.5H1.92606L2.66147 11.75H3C3.81662 11.7573 4.60333 11.4431 5.19025 10.8752C5.72084 10.3675 6.10356 9.67297 6.29709 8.86666L6.29884 8.85941L7.15644 4.74997H6.13487L5.32303 8.64022C5.07578 9.66147 4.33644 10.75 3 10.75H1.50188C1.52903 7.21041 1.85131 5.11188 2.53641 3.98016C3.11141 3.03016 3.95188 2.69294 5.74653 2.69247L9.22803 2.74247C9.30762 2.74368 9.38578 2.76385 9.45603 2.8013C9.52627 2.83875 9.58657 2.8924 9.63194 2.95781L11.7094 5.95841L14.5 6.42353V6.9535L14.0346 9.43541C13.8973 10.1679 13.6625 10.5369 12.6997 10.6526L8.75263 11.3279L8.72653 15.5H9.72653L9.74737 12.1721L12.8317 11.6439C13.5305 11.558 14.046 11.3328 14.4076 10.9557C14.7166 10.6333 14.9047 10.2213 15.0175 9.61972L15.5 7.04644V5.57641L12.2906 5.04153Z" fill="#0E333C"/>
</svg>
