<svg width="16" height="16" viewBox="0 0 16 16" fill="none" xmlns="http://www.w3.org/2000/svg">
<path d="M11.7112 5.83952C11.5975 5.50467 11.3816 5.21389 11.094 5.00812C10.8064 4.80235 10.4615 4.69196 10.1079 4.69246H8.74984V0.673462L8.17912 0.754993C6.88447 0.939931 5.876 1.59599 5.18203 2.70499C4.68169 3.5044 4.44909 4.38624 4.34116 5.04581C3.59594 5.61918 2.94763 6.40865 2.41184 7.39581C1.96031 8.22762 1.58653 9.20256 1.30084 10.2936C0.818125 12.137 0.752781 13.6661 0.75025 13.7303L0.75 15.5H1.74984V13.7613C1.76234 13.5041 2.07722 7.8754 5.09459 5.73209L5.27147 5.60643L5.30053 5.3914C5.451 4.27809 5.971 2.43927 7.74984 1.87406V5.69246H10.1079C10.2525 5.69203 10.3935 5.73695 10.5113 5.82089C10.629 5.90483 10.7174 6.02357 10.7641 6.1604C11.1628 7.33715 11.8478 8.80968 12.9153 9.50168L12.5943 10.7057C12.4825 11.1351 12.2283 11.5138 11.8733 11.7799C11.5182 12.0459 11.0834 12.1836 10.6399 12.1704C9.74403 12.1435 8.81159 12.2604 7.86837 12.5176L7.49984 12.6181V15.5H8.49984V13.3896C9.19087 13.2263 9.90001 13.1525 10.6098 13.1699C11.2783 13.1883 11.9334 12.9804 12.469 12.5799C13.0045 12.1794 13.3891 11.6098 13.5604 10.9633L14.0944 8.96081L13.6967 8.79037C12.953 8.47162 12.2478 7.42365 11.7112 5.83952Z" fill="#0E333C"/>
</svg>
