<svg width="43" height="43" viewBox="0 0 43 43" fill="none" xmlns="http://www.w3.org/2000/svg">
<g clip-path="url(#clip0_318_379)">
<path d="M23.685 35.3716L23.6854 35.3716C24.5418 35.3863 25.235 35.0901 25.7942 34.4783C26.5405 33.6618 27.2116 32.7908 27.8078 31.8653C28.4268 30.9042 29.1237 29.9999 29.8982 29.1525C30.6727 28.305 31.5108 27.5298 32.4125 26.827C33.2808 26.1501 34.088 25.4035 34.8342 24.587C35.3934 23.9752 35.6264 23.2578 35.5354 22.4054C35.4433 21.5434 35.0743 20.8185 34.4161 20.217C33.6849 19.5487 32.8243 19.2154 31.8158 19.2131C30.7155 19.2112 29.6266 19.2123 28.5491 19.2165L28.5461 19.2165C27.6187 19.2126 26.7054 19.1132 25.8064 18.9182L25.8061 18.9181C24.9571 18.7331 24.1012 18.6314 23.2381 18.6127L23.2319 18.6126L23.2319 18.6125C22.5659 18.5871 21.9289 18.6781 21.3186 18.8846C20.7254 19.0852 20.212 19.422 19.7748 19.9003C19.3405 20.3756 19.0593 20.9204 18.927 21.5406C18.7895 22.1848 18.7632 22.8378 18.8487 23.5013L18.8503 23.514L18.8501 23.514C18.9323 24.3854 19.1026 25.2263 19.3606 26.0373L23.685 35.3716ZM23.685 35.3716C22.8176 35.3578 22.0624 35.0555 21.4043 34.4541C20.6732 33.7859 20.2643 32.9586 20.172 31.9537L20.1719 31.9535M23.685 35.3716L20.1719 31.9535M20.1719 31.9535C20.0708 30.8589 19.9739 29.7751 19.8814 28.702M20.1719 31.9535L19.8814 28.702M19.8814 28.702C19.8098 27.7908 19.6363 26.9024 19.3607 26.0375L19.8814 28.702ZM14.7336 28.0172C14.2075 28.5929 13.5769 28.89 12.8237 28.9239C12.0706 28.9578 11.4159 28.7184 10.8402 28.1923C10.2645 27.6662 9.96738 27.0356 9.93351 26.2824C9.89964 25.5293 10.139 24.8746 10.6651 24.2989C11.1912 23.7232 11.8218 23.4261 12.575 23.3922C13.3281 23.3584 13.9829 23.5977 14.5585 24.1238C15.1342 24.6499 15.4313 25.2805 15.4652 26.0337C15.4991 26.7868 15.2597 27.4416 14.7336 28.0172ZM14.8378 20.4779C14.3117 21.0536 13.6811 21.3507 12.9279 21.3846C12.1748 21.4185 11.52 21.1791 10.9444 20.653C10.3687 20.1269 10.0716 19.4963 10.0377 18.7431C10.0038 17.99 10.2432 17.3353 10.7693 16.7596C11.2954 16.1839 11.926 15.8868 12.6792 15.8529C13.4323 15.819 14.087 16.0584 14.6627 16.5845C15.2384 17.1106 15.5355 17.7412 15.5694 18.4944C15.6033 19.2475 15.3639 19.9023 14.8378 20.4779ZM19.9069 14.9314C19.3808 15.5071 18.7502 15.8042 17.9971 15.8381C17.2439 15.872 16.5892 15.6326 16.0135 15.1065C15.4379 14.5804 15.1407 13.9498 15.1068 13.1966C15.073 12.4435 15.3123 11.7887 15.8384 11.2131C16.3646 10.6374 16.9952 10.3403 17.7483 10.3064C18.5015 10.2725 19.1562 10.5119 19.7318 11.038C20.3075 11.5641 20.6047 12.1947 20.6385 12.9479C20.6724 13.701 20.433 14.3557 19.9069 14.9314ZM27.4065 14.1509C26.8803 14.7266 26.2497 15.0238 25.4966 15.0576C24.7434 15.0915 24.0887 14.8521 23.5131 14.326C22.9374 13.7999 22.6402 13.1693 22.6064 12.4162C22.5725 11.663 22.8119 11.0083 23.338 10.4326C23.8641 9.85697 24.4947 9.55981 25.2478 9.52594C26.001 9.49208 26.6557 9.73144 27.2314 10.2575C27.807 10.7837 28.1042 11.4143 28.1381 12.1674C28.1719 12.9206 27.9326 13.5753 27.4065 14.1509Z" fill="#F6B8A9" stroke="black" stroke-width="0.75"/>
</g>
<defs>
<clipPath id="clip0_318_379">
<rect width="30.056" height="30.056" fill="white" transform="translate(0 22.186) rotate(-47.5748)"/>
</clipPath>
</defs>
</svg>
