<svg width="14" height="14" viewBox="0 0 14 14" fill="none" xmlns="http://www.w3.org/2000/svg">
<g clip-path="url(#clip0_318_393)">
<path d="M13.8723 0.127515C13.9329 0.18818 13.9743 0.265305 13.9914 0.349307C14.0085 0.43331 14.0005 0.520489 13.9685 0.600015L8.87691 13.3286C8.83204 13.4407 8.75711 13.5383 8.66037 13.6105C8.56364 13.6828 8.44884 13.727 8.32862 13.7382C8.2084 13.7494 8.08741 13.7272 7.97898 13.6741C7.87054 13.621 7.77886 13.539 7.71403 13.4371L4.93328 9.06651L0.562657 6.28576C0.46056 6.221 0.378339 6.12929 0.325068 6.02075C0.271796 5.91221 0.249545 5.79107 0.260769 5.67069C0.271992 5.5503 0.316255 5.43536 0.388673 5.33854C0.46109 5.24172 0.558847 5.16679 0.671157 5.12201L13.3998 0.0321398C13.4793 0.000125563 13.5665 -0.00781919 13.6505 0.00929246C13.7345 0.0264041 13.8116 0.0678181 13.8723 0.12839V0.127515ZM5.80653 8.81101L8.22241 12.6068L12.3638 2.25376L5.80653 8.81101ZM11.7452 1.63514L1.39216 5.77652L5.18878 8.19151L11.746 1.63514H11.7452Z" fill="white"/>
</g>
<defs>
<clipPath id="clip0_318_393">
<rect width="14" height="14" fill="white"/>
</clipPath>
</defs>
</svg>
