<svg width="28" height="28" viewBox="0 0 28 28" fill="none" xmlns="http://www.w3.org/2000/svg">
<path d="M14 3.5C14.8653 3.5 15.7112 3.75659 16.4306 4.23732C17.1501 4.71805 17.7108 5.40133 18.042 6.20076C18.3731 7.00019 18.4597 7.87985 18.2909 8.72852C18.1221 9.57719 17.7054 10.3567 17.0936 10.9686C16.4817 11.5804 15.7022 11.9971 14.8535 12.1659C14.0049 12.3347 13.1252 12.2481 12.3258 11.917C11.5263 11.5858 10.8431 11.0251 10.3623 10.3056C9.88159 9.58615 9.625 8.74029 9.625 7.875C9.625 6.71468 10.0859 5.60188 10.9064 4.78141C11.7269 3.96094 12.8397 3.5 14 3.5ZM14 1.75C12.7886 1.75 11.6044 2.10923 10.5971 2.78225C9.58988 3.45527 8.80482 4.41187 8.34124 5.53106C7.87765 6.65026 7.75636 7.88179 7.99269 9.06993C8.22902 10.2581 8.81237 11.3494 9.66897 12.206C10.5256 13.0626 11.6169 13.646 12.8051 13.8823C13.9932 14.1186 15.2247 13.9973 16.3439 13.5338C17.4631 13.0702 18.4197 12.2851 19.0928 11.2779C19.7658 10.2706 20.125 9.08641 20.125 7.875C20.125 6.25055 19.4797 4.69263 18.331 3.54397C17.1824 2.39531 15.6245 1.75 14 1.75ZM22.75 26.25H21V21.875C21 21.3005 20.8868 20.7316 20.667 20.2008C20.4471 19.67 20.1248 19.1877 19.7186 18.7814C19.3123 18.3752 18.83 18.0529 18.2992 17.833C17.7684 17.6132 17.1995 17.5 16.625 17.5H11.375C10.2147 17.5 9.10188 17.9609 8.28141 18.7814C7.46094 19.6019 7 20.7147 7 21.875V26.25H5.25V21.875C5.25 20.2505 5.89531 18.6926 7.04397 17.544C8.19263 16.3953 9.75055 15.75 11.375 15.75H16.625C18.2495 15.75 19.8074 16.3953 20.956 17.544C22.1047 18.6926 22.75 20.2505 22.75 21.875V26.25Z" fill="#A9ACAD"/>
</svg>
